<svg id="Livello_2" data-name="Livello 2" xmlns="http://www.w3.org/2000/svg" width="30" height="94" viewBox="0 0 30 94"><defs><style>.cls-1{fill:#fff;}</style></defs><title>Senza titolo-1</title><path class="cls-1" d="M28.84,1H3.16A2.16,2.16,0,0,0,1,3.16V28.84A2.16,2.16,0,0,0,3.16,31H28.84A2.16,2.16,0,0,0,31,28.84V3.16A2.16,2.16,0,0,0,28.84,1ZM11.64,23.68H8v-11h3.65ZM9.81,11.18h0a1.9,1.9,0,1,1,0-3.8,1.9,1.9,0,1,1,0,3.8Zm15,12.49H21.16V17.8c0-1.48-.53-2.49-1.85-2.49a2,2,0,0,0-1.87,1.34,2.5,2.5,0,0,0-.12.89v6.14H13.66s0-10,0-11h3.65v1.56a3.63,3.63,0,0,1,3.29-1.81c2.4,0,4.21,1.57,4.21,4.95Z" transform="translate(-1 -1)"/><path class="cls-1" d="M16,33.62a14.71,14.71,0,0,0-4.74,28.72c.75.14,1-.32,1-.71s0-1.28,0-2.51c-4.17.89-5.05-2-5.05-2A3.93,3.93,0,0,0,5.54,55c-1.36-.91.11-.89.11-.89a3.14,3.14,0,0,1,2.3,1.52,3.23,3.23,0,0,0,4.37,1.23,3.12,3.12,0,0,1,1-2c-3.33-.37-6.83-1.64-6.83-7.28a5.63,5.63,0,0,1,1.54-4,5.16,5.16,0,0,1,.13-3.9s1.26-.39,4.12,1.51a14.38,14.38,0,0,1,7.5,0c2.85-1.91,4.11-1.51,4.11-1.51a5.3,5.3,0,0,1,.15,3.9,5.65,5.65,0,0,1,1.54,4c0,5.66-3.51,6.91-6.84,7.27a3.5,3.5,0,0,1,1,2.73c0,2,0,3.56,0,4s.26.85,1,.7a14.72,14.72,0,0,0,10.3-14A14.87,14.87,0,0,0,16,33.62Z" transform="translate(-1 -1)"/><path class="cls-1" d="M30.92,73.82a11,11,0,0,0-.7-3.64,7.68,7.68,0,0,0-4.39-4.39,11,11,0,0,0-3.64-.7C20.59,65,20.08,65,16,65s-4.58,0-6.18.09a11,11,0,0,0-3.64.7,7.68,7.68,0,0,0-4.39,4.39,11,11,0,0,0-.7,3.64C1,75.42,1,75.93,1,80s0,4.58.09,6.18a11,11,0,0,0,.7,3.64,7.68,7.68,0,0,0,4.39,4.39,11,11,0,0,0,3.64.7c1.6.07,2.11.09,6.18.09s4.58,0,6.18-.09a11,11,0,0,0,3.64-.7,7.67,7.67,0,0,0,4.39-4.39,11,11,0,0,0,.7-3.64C31,84.59,31,84.08,31,80S31,75.42,30.92,73.82Zm-2.7,12.25a8.22,8.22,0,0,1-.52,2.78,5,5,0,0,1-2.85,2.85,8.25,8.25,0,0,1-2.78.52c-1.58.07-2.06.09-6.06.09s-4.48,0-6.06-.09a8.22,8.22,0,0,1-2.78-.52,4.62,4.62,0,0,1-1.72-1.12,4.66,4.66,0,0,1-1.12-1.72,8.25,8.25,0,0,1-.52-2.78C3.74,84.49,3.72,84,3.72,80s0-4.48.09-6.06a8.22,8.22,0,0,1,.52-2.78,4.56,4.56,0,0,1,1.13-1.72,4.66,4.66,0,0,1,1.72-1.12A8.26,8.26,0,0,1,10,67.81c1.58-.07,2.06-.09,6.06-.09s4.48,0,6.06.09a8.22,8.22,0,0,1,2.78.52,4.61,4.61,0,0,1,1.72,1.12,4.66,4.66,0,0,1,1.12,1.72A8.26,8.26,0,0,1,28.22,74c.07,1.58.09,2.06.09,6.06S28.29,84.49,28.22,86.07Z" transform="translate(-1 -1)"/><path class="cls-1" d="M16,72.3A7.71,7.71,0,1,0,23.71,80,7.71,7.71,0,0,0,16,72.3ZM16,85a5,5,0,1,1,5-5A5,5,0,0,1,16,85Z" transform="translate(-1 -1)"/><path class="cls-1" d="M25.82,72a1.8,1.8,0,1,1-1.8-1.8A1.8,1.8,0,0,1,25.82,72Z" transform="translate(-1 -1)"/></svg>